<svg width="582" height="830" viewBox="0 0 582 830" fill="none" xmlns="http://www.w3.org/2000/svg">
<g opacity="0.05">
<ellipse cx="17.6721" cy="19.6269" rx="17.6721" ry="19.6268" fill="black"/>
<rect x="53.0166" y="2.61693" width="76.5789" height="10.4676" fill="black"/>
<rect x="53.0166" y="28.7861" width="76.5789" height="10.4676" fill="black"/>
<rect y="54.9552" width="129.595" height="10.4676" fill="black"/>
<rect y="81.1243" width="129.595" height="10.4676" fill="black"/>
<rect y="107.293" width="129.595" height="10.4676" fill="black"/>
<ellipse cx="470.077" cy="19.6268" rx="17.6721" ry="19.6268" fill="black"/>
<rect x="505.421" y="2.61705" width="76.5789" height="10.4676" fill="black"/>
<rect x="505.421" y="28.7861" width="76.5789" height="10.4676" fill="black"/>
<rect x="452.405" y="54.9553" width="129.595" height="10.4676" fill="black"/>
<rect x="452.405" y="81.1243" width="129.595" height="10.4676" fill="black"/>
<rect x="452.405" y="107.293" width="129.595" height="10.4676" fill="black"/>
<ellipse cx="243.874" cy="19.6269" rx="17.6721" ry="19.6268" fill="black"/>
<rect x="279.218" y="2.61693" width="76.5789" height="10.4676" fill="black"/>
<rect x="279.218" y="28.7861" width="76.5789" height="10.4676" fill="black"/>
<rect x="226.202" y="54.9552" width="129.595" height="10.4676" fill="black"/>
<rect x="226.202" y="81.1243" width="129.595" height="10.4676" fill="black"/>
<rect x="226.202" y="107.293" width="129.595" height="10.4676" fill="black"/>
<ellipse cx="17.6721" cy="272.159" rx="17.6721" ry="19.6268" fill="black"/>
<rect x="53.0166" y="255.149" width="76.5789" height="10.4676" fill="black"/>
<rect x="53.0166" y="281.318" width="76.5789" height="10.4676" fill="black"/>
<rect y="307.487" width="129.595" height="10.4676" fill="black"/>
<rect y="333.656" width="129.595" height="10.4676" fill="black"/>
<rect y="359.826" width="129.595" height="10.4676" fill="black"/>
<ellipse cx="470.077" cy="272.159" rx="17.6721" ry="19.6268" fill="black"/>
<rect x="505.421" y="255.149" width="76.5789" height="10.4676" fill="black"/>
<rect x="505.421" y="281.318" width="76.5789" height="10.4676" fill="black"/>
<rect x="452.405" y="307.487" width="129.595" height="10.4676" fill="black"/>
<rect x="452.405" y="333.656" width="129.595" height="10.4676" fill="black"/>
<rect x="452.405" y="359.826" width="129.595" height="10.4676" fill="black"/>
<ellipse cx="243.874" cy="272.159" rx="17.6721" ry="19.6268" fill="black"/>
<rect x="279.218" y="255.149" width="76.5789" height="10.4676" fill="black"/>
<rect x="279.218" y="281.318" width="76.5789" height="10.4676" fill="black"/>
<rect x="226.202" y="307.487" width="129.595" height="10.4676" fill="black"/>
<rect x="226.202" y="333.656" width="129.595" height="10.4676" fill="black"/>
<rect x="226.202" y="359.826" width="129.595" height="10.4676" fill="black"/>
<ellipse cx="17.6721" cy="478.895" rx="17.6721" ry="19.6268" fill="black"/>
<rect x="53.0166" y="461.885" width="76.5789" height="10.4676" fill="black"/>
<rect x="53.0166" y="488.054" width="76.5789" height="10.4676" fill="black"/>
<rect y="514.223" width="129.595" height="10.4676" fill="black"/>
<rect y="540.392" width="129.595" height="10.4676" fill="black"/>
<rect y="566.562" width="129.595" height="10.4676" fill="black"/>
<ellipse cx="470.077" cy="478.895" rx="17.6721" ry="19.6268" fill="black"/>
<rect x="505.421" y="461.885" width="76.5789" height="10.4676" fill="black"/>
<rect x="505.421" y="488.054" width="76.5789" height="10.4676" fill="black"/>
<rect x="452.405" y="514.223" width="129.595" height="10.4676" fill="black"/>
<rect x="452.405" y="540.392" width="129.595" height="10.4676" fill="black"/>
<rect x="452.405" y="566.562" width="129.595" height="10.4676" fill="black"/>
<ellipse cx="243.874" cy="478.895" rx="17.6721" ry="19.6268" fill="black"/>
<rect x="279.218" y="461.885" width="76.5789" height="10.4676" fill="black"/>
<rect x="279.218" y="488.054" width="76.5789" height="10.4676" fill="black"/>
<rect x="226.202" y="514.223" width="129.595" height="10.4676" fill="black"/>
<rect x="226.202" y="540.392" width="129.595" height="10.4676" fill="black"/>
<rect x="226.202" y="566.562" width="129.595" height="10.4676" fill="black"/>
<ellipse cx="17.6721" cy="731.427" rx="17.6721" ry="19.6268" fill="black"/>
<rect x="53.0166" y="714.417" width="76.5789" height="10.4676" fill="black"/>
<rect x="53.0166" y="740.586" width="76.5789" height="10.4676" fill="black"/>
<rect y="766.755" width="129.595" height="10.4676" fill="black"/>
<rect y="792.924" width="129.595" height="10.4676" fill="black"/>
<rect y="819.093" width="129.595" height="10.4676" fill="black"/>
<ellipse cx="470.077" cy="731.427" rx="17.6721" ry="19.6268" fill="black"/>
<rect x="505.421" y="714.417" width="76.5789" height="10.4676" fill="black"/>
<rect x="505.421" y="740.586" width="76.5789" height="10.4676" fill="black"/>
<rect x="452.405" y="766.755" width="129.595" height="10.4676" fill="black"/>
<rect x="452.405" y="792.924" width="129.595" height="10.4676" fill="black"/>
<rect x="452.405" y="819.093" width="129.595" height="10.4676" fill="black"/>
<ellipse cx="243.874" cy="731.427" rx="17.6721" ry="19.6268" fill="black"/>
<rect x="279.218" y="714.417" width="76.5789" height="10.4676" fill="black"/>
<rect x="279.218" y="740.586" width="76.5789" height="10.4676" fill="black"/>
<rect x="226.202" y="766.755" width="129.595" height="10.4676" fill="black"/>
<rect x="226.202" y="792.924" width="129.595" height="10.4676" fill="black"/>
<rect x="226.202" y="819.093" width="129.595" height="10.4676" fill="black"/>
</g>
</svg>
