<svg width="75" height="75" viewBox="0 0 75 75" fill="none" xmlns="http://www.w3.org/2000/svg">
<g clip-path="url(#clip0)">
<path d="M61.9857 19.9837C61.8883 19.789 61.7387 19.6253 61.5535 19.5109C61.3684 19.3965 61.155 19.3359 60.9374 19.3359C60.7197 19.3359 60.5064 19.3965 60.3213 19.5109C60.1361 19.6253 59.9865 19.789 59.8891 19.9837L57.5454 24.6712C57.4765 24.8088 57.4355 24.9587 57.4246 25.1122C57.4137 25.2658 57.4331 25.4199 57.4818 25.5659C57.5304 25.7119 57.6074 25.8469 57.7082 25.9632C57.8091 26.0795 57.9318 26.1748 58.0695 26.2436C58.2072 26.3124 58.357 26.3535 58.5106 26.3644C58.6641 26.3753 58.8182 26.3558 58.9643 26.3072C59.1103 26.2585 59.2453 26.1816 59.3615 26.0807C59.4778 25.9799 59.5731 25.8571 59.6419 25.7194L59.7655 25.4722V72.6562H51.5624C51.2516 72.6562 50.9535 72.7797 50.7337 72.9995C50.514 73.2192 50.3905 73.5173 50.3905 73.8281C50.3905 74.1389 50.514 74.437 50.7337 74.6568C50.9535 74.8765 51.2516 75 51.5624 75H60.3514C60.8175 74.9995 61.2643 74.8141 61.5938 74.4846C61.9234 74.155 62.1088 73.7082 62.1093 73.2422V25.4722L62.2329 25.7195C62.3017 25.8571 62.397 25.9799 62.5132 26.0807C62.6295 26.1816 62.7645 26.2585 62.9105 26.3072C63.0565 26.3559 63.2107 26.3753 63.3642 26.3644C63.5177 26.3535 63.6676 26.3124 63.8053 26.2436C63.9429 26.1748 64.0657 26.0795 64.1665 25.9632C64.2674 25.8469 64.3443 25.712 64.393 25.5659C64.4417 25.4199 64.4611 25.2658 64.4502 25.1122C64.4393 24.9587 64.3983 24.8088 64.3294 24.6712L61.9857 19.9837ZM23.4374 72.6562H15.2343V25.4722L15.3579 25.7195C15.4267 25.8571 15.522 25.9799 15.6382 26.0807C15.7545 26.1816 15.8895 26.2585 16.0355 26.3072C16.1815 26.3559 16.3357 26.3753 16.4892 26.3644C16.6427 26.3535 16.7926 26.3124 16.9303 26.2436C17.0679 26.1748 17.1907 26.0795 17.2915 25.9632C17.3924 25.8469 17.4693 25.712 17.518 25.5659C17.5667 25.4199 17.5861 25.2658 17.5752 25.1122C17.5643 24.9587 17.5232 24.8088 17.4544 24.6712L15.1107 19.9837C15.0133 19.789 14.8637 19.6253 14.6785 19.5109C14.4934 19.3965 14.28 19.3359 14.0624 19.3359C13.8448 19.3359 13.6314 19.3965 13.4463 19.5109C13.2611 19.6253 13.1115 19.789 13.0141 19.9837L10.6704 24.6712C10.5314 24.9492 10.5085 25.2711 10.6068 25.5659C10.7051 25.8608 10.9165 26.1046 11.1945 26.2436C11.4725 26.3826 11.7944 26.4055 12.0893 26.3072C12.3842 26.2089 12.6279 25.9975 12.7669 25.7195L12.8905 25.4722V73.2422C12.891 73.7082 13.0764 74.155 13.4059 74.4846C13.7355 74.8141 14.1823 74.9995 14.6483 75H23.4374C23.7482 75 24.0463 74.8765 24.266 74.6568C24.4858 74.437 24.6093 74.1389 24.6093 73.8281C24.6093 73.5173 24.4858 73.2192 24.266 72.9995C24.0463 72.7797 23.7482 72.6562 23.4374 72.6562Z" fill="#B4BAE9"/>
<path d="M27.2404 19.9219H32.4259C31.2057 19.3352 30.0959 18.5423 29.1454 17.5781H27.2404C25.6153 17.5755 24.0555 18.2175 22.9032 19.3633C21.7509 20.5092 21.1002 22.0654 21.0938 23.6904V50.2636C21.0971 51.2315 21.4842 52.1586 22.1702 52.8415C22.8562 53.5244 23.7851 53.9073 24.753 53.9063H28.125V73.8281C28.125 74.1389 28.2485 74.437 28.4682 74.6568C28.688 74.8765 28.9861 75 29.2969 75C29.6077 75 29.9057 74.8765 30.1255 74.6568C30.3453 74.437 30.4688 74.1389 30.4688 73.8281V41.0156C30.4688 40.7048 30.3453 40.4068 30.1255 40.187C29.9057 39.9672 29.6077 39.8438 29.2969 39.8438C28.9861 39.8438 28.688 39.9672 28.4682 40.187C28.2485 40.4068 28.125 40.7048 28.125 41.0156V51.5625H24.753C24.4064 51.5643 24.0733 51.4286 23.8267 51.1851C23.58 50.9416 23.4401 50.6102 23.4375 50.2636V23.6904C23.4432 22.6867 23.8467 21.7263 24.5597 21.0198C25.2726 20.3133 26.2367 19.9185 27.2404 19.9219ZM53.9062 50.2636V23.6904C53.8998 22.0654 53.2491 20.5092 52.0968 19.3633C50.9445 18.2175 49.3847 17.5755 47.7596 17.5781H45.8546C44.9041 18.5423 43.7943 19.3352 42.5741 19.9219H47.7596C48.7633 19.9184 49.7274 20.3133 50.4403 21.0198C51.1533 21.7263 51.5568 22.6867 51.5625 23.6904V50.2636C51.5599 50.6102 51.42 50.9416 51.1733 51.1851C50.9267 51.4286 50.5936 51.5643 50.247 51.5625H46.875V41.0156C46.875 40.7048 46.7515 40.4068 46.5318 40.187C46.312 39.9672 46.0139 39.8438 45.7031 39.8438C45.3923 39.8438 45.0943 39.9672 44.8745 40.187C44.6547 40.4068 44.5312 40.7048 44.5312 41.0156V73.8281C44.5312 74.1389 44.6547 74.437 44.8745 74.6568C45.0943 74.8765 45.3923 75 45.7031 75C46.0139 75 46.312 74.8765 46.5318 74.6568C46.7515 74.437 46.875 74.1389 46.875 73.8281V53.9063H50.247C51.2149 53.9073 52.1438 53.5244 52.8298 52.8415C53.5158 52.1586 53.9029 51.2315 53.9062 50.2636ZM37.5 18.75C39.3542 18.75 41.1668 18.2002 42.7085 17.17C44.2502 16.1399 45.4518 14.6757 46.1614 12.9627C46.8709 11.2496 47.0566 9.3646 46.6949 7.54603C46.3331 5.72746 45.4402 4.057 44.1291 2.74588C42.818 1.43476 41.1475 0.541879 39.329 0.180142C37.5104 -0.181594 35.6254 0.00406206 33.9123 0.713634C32.1993 1.42321 30.7351 2.62482 29.705 4.16653C28.6748 5.70824 28.125 7.5208 28.125 9.375C28.1278 11.8605 29.1165 14.2435 30.874 16.001C32.6315 17.7585 35.0145 18.7472 37.5 18.75ZM37.5 2.34375C38.8907 2.34375 40.2501 2.75613 41.4064 3.52873C42.5626 4.30134 43.4639 5.39947 43.996 6.68426C44.5282 7.96905 44.6674 9.3828 44.3961 10.7467C44.1248 12.1107 43.4552 13.3635 42.4718 14.3468C41.4885 15.3302 40.2357 15.9998 38.8717 16.2712C37.5078 16.5425 36.0941 16.4032 34.8093 15.871C33.5245 15.3389 32.4263 14.4376 31.6537 13.2814C30.8811 12.1251 30.4688 10.7657 30.4688 9.375C30.4708 7.51084 31.2123 5.72363 32.5305 4.40546C33.8486 3.0873 35.6358 2.34584 37.5 2.34375ZM37.5 51.5625C37.1892 51.5625 36.8911 51.686 36.6714 51.9058C36.4516 52.1255 36.3281 52.4236 36.3281 52.7344V73.8281C36.3281 74.1389 36.4516 74.437 36.6714 74.6568C36.8911 74.8765 37.1892 75 37.5 75C37.8108 75 38.1089 74.8765 38.3286 74.6568C38.5484 74.437 38.6719 74.1389 38.6719 73.8281V52.7344C38.6719 52.4236 38.5484 52.1255 38.3286 51.9058C38.1089 51.686 37.8108 51.5625 37.5 51.5625ZM73.8281 72.6563H70.3125V54.1832L70.4361 54.4304C70.5751 54.7084 70.8189 54.9198 71.1138 55.0181C71.2598 55.0668 71.4139 55.0862 71.5675 55.0753C71.721 55.0644 71.8708 55.0234 72.0085 54.9545C72.1462 54.8857 72.2689 54.7904 72.3698 54.6742C72.4706 54.5579 72.5476 54.4229 72.5962 54.2769C72.6449 54.1309 72.6644 53.9767 72.6534 53.8232C72.6425 53.6697 72.6015 53.5198 72.5327 53.3821L70.1889 48.6946C70.0915 48.5 69.9419 48.3363 69.7568 48.2219C69.5716 48.1075 69.3583 48.0469 69.1406 48.0469C68.923 48.0469 68.7096 48.1075 68.5245 48.2219C68.3394 48.3363 68.1897 48.5 68.0924 48.6946L65.7486 53.3821C65.6096 53.6601 65.5867 53.982 65.685 54.2769C65.7833 54.5718 65.9947 54.8155 66.2727 54.9545C66.5508 55.0936 66.8726 55.1164 67.1675 55.0181C67.4624 54.9198 67.7062 54.7084 67.8452 54.4304L67.9688 54.1832V73.8281C67.9688 74.1389 68.0922 74.437 68.312 74.6568C68.5318 74.8765 68.8298 75 69.1406 75H73.8281C74.1389 75 74.437 74.8765 74.6568 74.6568C74.8765 74.437 75 74.1389 75 73.8281C75 73.5173 74.8765 73.2193 74.6568 72.9995C74.437 72.7797 74.1389 72.6563 73.8281 72.6563ZM6.90765 48.6946C6.81028 48.5 6.66065 48.3363 6.4755 48.2219C6.29035 48.1075 6.07701 48.0469 5.85938 48.0469C5.64174 48.0469 5.4284 48.1075 5.24325 48.2219C5.0581 48.3363 4.90847 48.5 4.8111 48.6946L2.46735 53.3821C2.32834 53.6601 2.30546 53.982 2.40376 54.2769C2.50206 54.5718 2.71347 54.8155 2.99149 54.9545C3.26951 55.0935 3.59137 55.1164 3.88625 55.0181C4.18114 54.9198 4.4249 54.7084 4.56391 54.4304L4.6875 54.1832V72.6563H1.17188C0.861074 72.6563 0.563003 72.7797 0.343234 72.9995C0.123465 73.2193 0 73.5173 0 73.8281C0 74.1389 0.123465 74.437 0.343234 74.6568C0.563003 74.8765 0.861074 75 1.17188 75H5.85938C6.17017 75 6.46823 74.8765 6.688 74.6568C6.90776 74.437 7.03123 74.1389 7.03125 73.8281V54.1832L7.15485 54.4304C7.29386 54.7084 7.53762 54.9198 7.8325 55.0181C7.97852 55.0668 8.13269 55.0862 8.28621 55.0753C8.43973 55.0644 8.5896 55.0234 8.72727 54.9545C8.86493 54.8857 8.98769 54.7904 9.08853 54.6742C9.18937 54.5579 9.26632 54.4229 9.315 54.2769C9.36367 54.1309 9.3831 53.9767 9.37219 53.8232C9.36128 53.6697 9.32024 53.5198 9.25141 53.3821L6.90765 48.6946Z" fill="#4816D7"/>
</g>
<defs>
<clipPath id="clip0">
<rect width="75" height="75" fill="white"/>
</clipPath>
</defs>
</svg>
