<svg width="75" height="75" viewBox="0 0 75 75" fill="none" xmlns="http://www.w3.org/2000/svg">
<path d="M52.5 9C52.5 4.8645 49.1355 1.5 45 1.5H30C25.8645 1.5 22.5 4.8645 22.5 9V13.5H1.5V39H4.5V73.5H70.5V39H73.5V13.5H52.5V9ZM25.5 9C25.5 6.519 27.519 4.5 30 4.5H45C47.481 4.5 49.5 6.519 49.5 9V13.5H25.5V9ZM7.5 63.135C9.33905 63.4491 11.0353 64.3263 12.3545 65.6455C13.6737 66.9647 14.5509 68.6609 14.865 70.5H7.5V63.135ZM60.135 70.5C60.4491 68.6609 61.3263 66.9647 62.6455 65.6455C63.9647 64.3263 65.6609 63.4491 67.5 63.135V70.5H60.135ZM67.5 60.1035C64.8602 60.4398 62.4067 61.6433 60.525 63.525C58.6433 65.4067 57.4398 67.8602 57.1035 70.5H17.8965C17.56 67.8603 16.3564 65.407 14.4747 63.5253C12.593 61.6436 10.1397 60.44 7.5 60.1035V39H28.5V48H36V51H39V48H46.5V39H67.5V60.1035ZM36 42V45H31.5V39H43.5V45H39V42H36ZM70.5 36H4.5V16.5H70.5V36Z" fill="#4816D7"/>
</svg>
