<svg width="120" height="120" viewBox="0 0 120 120" fill="none" xmlns="http://www.w3.org/2000/svg">
<rect width="120" height="120" fill="#4816D7"/>
<path d="M54.2993 75.7143H67.1294C67.9322 75.7143 68.5715 75.1135 68.5715 74.359V59.9266C68.5715 59.1722 67.9322 58.5714 67.1294 58.5714H54.2993C53.4965 58.5714 52.8572 59.1722 52.8572 59.9266V74.359C52.8572 75.0995 53.4965 75.7143 54.2993 75.7143ZM62.149 61.2819H65.6724V65.7806H62.149V61.2819ZM62.149 68.4911H65.6724V72.9898H62.149V68.4911ZM55.7414 61.2819H59.2648V65.7806H55.7414V61.2819ZM55.7414 68.4911H59.2648V72.9898H55.7414V68.4911Z" fill="white"/>
<path d="M105.714 81.4371H103.784V77.3256C103.784 76.5327 103.15 75.9013 102.355 75.9013H101.795V54.654H102.782C103.283 54.654 103.754 54.3897 104.005 53.9638C104.27 53.538 104.285 53.0094 104.049 52.5689L97.4639 40.1611C97.2134 39.6913 96.7273 39.3976 96.1969 39.3976H87.9911L84.5732 30.8957C84.3523 30.3524 83.8366 30 83.2474 30H36.738C36.1487 30 35.6331 30.3524 35.4121 30.8957L32.009 39.3829H23.7737C23.2433 39.3829 22.7572 39.6766 22.5067 40.1465L15.9509 52.5689C15.7152 53.0094 15.7299 53.538 15.9951 53.9638C16.2603 54.3897 16.717 54.654 17.2179 54.654H18.2049V75.9013H17.6451C16.8496 75.9013 16.2161 76.5327 16.2161 77.3256V81.4371H14.2862C13.4907 81.4371 12.8572 82.0685 12.8572 82.8614C12.8572 83.6543 13.4907 84.2857 14.2862 84.2857H105.714C106.509 84.2857 107.143 83.6543 107.143 82.8614C107.143 82.0685 106.509 81.4371 105.714 81.4371ZM87.0335 42.2609H95.3424L100.41 51.82H74.7616L66.0402 42.2609H87.0335ZM98.9371 54.654V75.9013H96.1822V54.654H98.9371ZM83.0558 54.654V75.9013H80.3009V54.654H83.0558ZM37.6956 32.8633H82.275L84.9121 39.3976H63.4621L61.0608 36.7692C60.5157 36.1818 59.4844 36.1818 58.9393 36.7692L56.538 39.3976H35.0732L37.6956 32.8633ZM24.6429 42.2609H53.9451L45.2237 51.82H19.575L24.6429 42.2609ZM39.6991 54.654V75.9013H36.9442V54.654H39.6991ZM23.8179 54.654V75.9013H21.063V54.654H23.8179ZM25.8067 81.4371H19.0741V78.7499H25.8067V81.4371ZM34.0862 75.9013H33.5264C32.7308 75.9013 32.0974 76.5327 32.0974 77.3256V81.4371H28.6648V77.3256C28.6648 76.5327 28.0313 75.9013 27.2357 75.9013H26.6612V54.654H34.0862V75.9013ZM41.688 81.4371H34.9554V78.7499H41.688V81.4371ZM47.1094 81.4371H44.546V77.3256C44.546 76.5327 43.9125 75.9013 43.117 75.9013H42.5572V54.654H45.9014C45.9161 54.654 45.9308 54.654 45.9456 54.654H47.1094V81.4371V81.4371ZM70.0326 81.4371H49.9674V54.654H70.0179V81.4371H70.0326ZM49.0982 51.82L60 39.8528L61.7974 41.8204C61.8121 41.8351 61.8121 41.8351 61.8268 41.8498L70.9166 51.82H49.0982V51.82ZM77.4429 75.9013H76.8831C76.0875 75.9013 75.4541 76.5327 75.4541 77.3256V81.4371H72.8907V54.654H74.1134C74.1282 54.654 74.1282 54.654 74.1429 54.654C74.1576 54.654 74.1576 54.654 74.1724 54.654H77.4429V75.9013ZM85.0447 81.4371H78.3121V78.7499H85.0447V81.4371ZM93.3389 75.9013H92.7791C91.9835 75.9013 91.35 76.5327 91.35 77.3256V81.4371H87.9174V77.3256C87.9174 76.5327 87.284 75.9013 86.4884 75.9013H85.9286V54.654H93.3536V75.9013H93.3389ZM100.926 81.4371H94.1933V78.7499H100.926V81.4371Z" fill="white"/>
</svg>
