<svg width="120" height="120" viewBox="0 0 120 120" fill="none" xmlns="http://www.w3.org/2000/svg">
<rect width="120" height="120" fill="#4816D7"/>
<path d="M26.25 56.25V75.5438C26.2485 77.6338 26.8293 79.6829 27.9271 81.4613C29.025 83.2398 30.5966 84.6772 32.4656 85.6125L49.9406 94.3406C53.0641 95.9018 56.5081 96.7145 60 96.7145C63.4919 96.7145 66.9359 95.9018 70.0594 94.3406L81.8813 88.4437M93.75 56.25V75.5438C93.7495 77.5473 93.2139 79.5144 92.1987 81.2416C91.1834 82.9689 89.7253 84.3937 87.975 85.3687L93.75 56.25Z" stroke="white" stroke-width="4" stroke-linecap="round" stroke-linejoin="round"/>
<path d="M11.25 48.75L60 73.125L108.75 48.75L60 24.375L11.25 48.75Z" stroke="white" stroke-width="4" stroke-linecap="round" stroke-linejoin="round"/>
<path d="M26.25 48.75L60 31.875L93.75 48.75L60 65.625L26.25 48.75Z" stroke="white" stroke-width="4" stroke-linecap="round" stroke-linejoin="round"/>
<path d="M60 51.5625C63.1066 51.5625 65.625 50.3033 65.625 48.75C65.625 47.1967 63.1066 45.9375 60 45.9375C56.8934 45.9375 54.375 47.1967 54.375 48.75C54.375 50.3033 56.8934 51.5625 60 51.5625Z" stroke="white" stroke-width="4" stroke-linecap="round" stroke-linejoin="round"/>
<path d="M84.3751 78.75V60.9375L63.9751 50.7375" stroke="white" stroke-width="4" stroke-linecap="round" stroke-linejoin="round"/>
<path d="M86.7469 87.3844L88.125 98.4375L84.375 96.5625L80.625 98.4375L82.0125 87.3657" stroke="white" stroke-width="4" stroke-linecap="round" stroke-linejoin="round"/>
<path d="M88.1249 83.9625C88.1731 85.0327 87.841 86.0855 87.1874 86.9344C86.8208 87.3086 86.3832 87.6058 85.9003 87.8087C85.4174 88.0117 84.8988 88.1162 84.3749 88.1162C83.8511 88.1162 83.3325 88.0117 82.8496 87.8087C82.3667 87.6058 81.9291 87.3086 81.5624 86.9344C80.9089 86.0855 80.5768 85.0327 80.6249 83.9625C80.6249 81.0844 82.3031 78.75 84.3749 78.75C86.4468 78.75 88.1249 81.0844 88.1249 83.9625Z" stroke="white" stroke-width="4" stroke-linecap="round" stroke-linejoin="round"/>
<path d="M48.6375 85.3125L53.325 87.6375C55.411 88.6733 57.7084 89.2122 60.0375 89.2122C62.3665 89.2122 64.6639 88.6733 66.7499 87.6375L71.4375 85.3125" stroke="white" stroke-width="4" stroke-linecap="round" stroke-linejoin="round"/>
</svg>
