<svg width="16" height="16" viewBox="0 0 16 16" fill="none" xmlns="http://www.w3.org/2000/svg">
<path d="M14.675 10.8167C13.65 10.8167 12.6583 10.65 11.7333 10.35C11.4417 10.25 11.1167 10.325 10.8917 10.55L9.58333 12.1917C7.225 11.0667 5.01667 8.94167 3.84167 6.5L5.46667 5.11667C5.69167 4.88333 5.75833 4.55833 5.66667 4.26667C5.35833 3.34167 5.2 2.35 5.2 1.325C5.2 0.875 4.825 0.5 4.375 0.5H1.49167C1.04167 0.5 0.5 0.7 0.5 1.325C0.5 9.06667 6.94167 15.5 14.675 15.5C15.2667 15.5 15.5 14.975 15.5 14.5167V11.6417C15.5 11.1917 15.125 10.8167 14.675 10.8167Z" fill="#4816D7"/>
</svg>
