<svg width="66" height="30" viewBox="0 0 66 30" fill="none" xmlns="http://www.w3.org/2000/svg">
<path d="M4 7.5H62C62.9614 7.5 63.8834 7.11808 64.5633 6.43826C65.2431 5.75844 65.625 4.83641 65.625 3.875C65.625 2.91359 65.2431 1.99156 64.5633 1.31174C63.8834 0.631919 62.9614 0.25 62 0.25H4C3.03859 0.25 2.11656 0.631919 1.43674 1.31174C0.756919 1.99156 0.375 2.91359 0.375 3.875C0.375 4.83641 0.756919 5.75844 1.43674 6.43826C2.11656 7.11808 3.03859 7.5 4 7.5ZM4 29.25H62C62.9614 29.25 63.8834 28.8681 64.5633 28.1883C65.2431 27.5084 65.625 26.5864 65.625 25.625C65.625 24.6636 65.2431 23.7416 64.5633 23.0617C63.8834 22.3819 62.9614 22 62 22H4C3.03859 22 2.11656 22.3819 1.43674 23.0617C0.756919 23.7416 0.375 24.6636 0.375 25.625C0.375 26.5864 0.756919 27.5084 1.43674 28.1883C2.11656 28.8681 3.03859 29.25 4 29.25Z" fill="white"/>
</svg>
