<svg width="96" height="84" viewBox="0 0 96 84" fill="none" xmlns="http://www.w3.org/2000/svg">
<path d="M91.5 0.125H4.5C3.53859 0.125 2.61656 0.506919 1.93674 1.18674C1.25692 1.86656 0.875 2.78859 0.875 3.75V61.75C0.875 62.7114 1.25692 63.6334 1.93674 64.3133C2.61656 64.9931 3.53859 65.375 4.5 65.375H29.875V79.875C29.8736 80.5406 30.0555 81.1938 30.4008 81.7629C30.7461 82.332 31.2415 82.7951 31.8325 83.1012C32.3516 83.3569 32.9214 83.4931 33.5 83.5C34.2555 83.4951 34.9906 83.2543 35.6025 82.8112L60.035 65.375H91.5C92.4614 65.375 93.3834 64.9931 94.0633 64.3133C94.7431 63.6334 95.125 62.7114 95.125 61.75V3.75C95.125 2.78859 94.7431 1.86656 94.0633 1.18674C93.3834 0.506919 92.4614 0.125 91.5 0.125ZM87.875 58.125H58.875C58.1171 58.1143 57.3772 58.3567 56.7725 58.8138L37.125 72.8425V61.75C37.125 60.7886 36.7431 59.8666 36.0633 59.1867C35.3834 58.5069 34.4614 58.125 33.5 58.125H8.125V7.375H87.875V58.125Z" fill="white"/>
</svg>
